<?xml version="1.0" encoding="utf-8"?>
<!-- Generator: Adobe Illustrator 27.6.1, SVG Export Plug-In . SVG Version: 6.00 Build 0)  -->
<svg version="1.1" id="Layer_1" xmlns="http://www.w3.org/2000/svg" xmlns:xlink="http://www.w3.org/1999/xlink" x="0px" y="0px"
	 viewBox="0 0 19 20" style="enable-background:new 0 0 19 20;" xml:space="preserve">
<style type="text/css">
	.st0{fill:none;stroke:#5D6A72;stroke-linecap:round;stroke-linejoin:round;}
</style>
<path class="st0" d="M7.1,1.9C7.2,1.4,7.7,1,8.2,1h2.6c0.6,0,1,0.4,1.1,0.9l0.2,1.3c0.1,0.4,0.3,0.7,0.6,0.9c0.1,0,0.1,0.1,0.2,0.1
	c0.3,0.2,0.7,0.3,1.1,0.1l1.2-0.5c0.2-0.1,0.5-0.1,0.8,0c0.3,0.1,0.5,0.3,0.6,0.5l1.3,2.2c0.1,0.2,0.2,0.5,0.1,0.8
	c0,0.3-0.2,0.5-0.4,0.7l-1,0.8c-0.3,0.2-0.4,0.6-0.4,1c0,0.1,0,0.2,0,0.3c0,0.4,0.1,0.8,0.4,1l1,0.8c0.4,0.3,0.5,1,0.3,1.4l-1.3,2.2
	c-0.1,0.2-0.3,0.4-0.6,0.5c-0.3,0.1-0.5,0.1-0.8,0l-1.2-0.5c-0.4-0.1-0.8-0.1-1.1,0.1c-0.1,0-0.1,0.1-0.2,0.1
	c-0.3,0.2-0.6,0.5-0.6,0.9l-0.2,1.3c-0.1,0.5-0.6,0.9-1.1,0.9H8.2c-0.6,0-1-0.4-1.1-0.9l-0.2-1.3c-0.1-0.4-0.3-0.7-0.6-0.9
	c-0.1,0-0.1-0.1-0.2-0.1c-0.3-0.2-0.7-0.3-1.1-0.1l-1.2,0.5c-0.2,0.1-0.5,0.1-0.8,0s-0.5-0.3-0.6-0.5l-1.3-2.2
	c-0.1-0.2-0.2-0.5-0.1-0.8c0-0.3,0.2-0.5,0.4-0.7l1-0.8c0.3-0.2,0.4-0.6,0.4-1c0-0.1,0-0.2,0-0.3c0-0.4-0.1-0.8-0.4-1l-1-0.8
	C1.1,7.9,1,7.6,0.9,7.4s0-0.5,0.1-0.8l1.3-2.2C2.5,4.1,2.7,4,2.9,3.9c0.3-0.1,0.5-0.1,0.8,0l1.2,0.5C5.3,4.5,5.7,4.4,6,4.2
	c0.1,0,0.1-0.1,0.2-0.1c0.3-0.2,0.6-0.5,0.6-0.9L7.1,1.9z"/>
<path class="st0" d="M12.5,10c0,0.8-0.3,1.6-0.9,2.1S10.3,13,9.5,13c-0.8,0-1.6-0.3-2.1-0.9S6.5,10.8,6.5,10c0-0.8,0.3-1.6,0.9-2.1
	S8.7,7,9.5,7c0.8,0,1.6,0.3,2.1,0.9S12.5,9.2,12.5,10z"/>
</svg>
