<?xml version="1.0" encoding="utf-8"?>
<!-- Generator: Adobe Illustrator 27.6.1, SVG Export Plug-In . SVG Version: 6.00 Build 0)  -->
<svg version="1.1" id="Layer_1" xmlns="http://www.w3.org/2000/svg" xmlns:xlink="http://www.w3.org/1999/xlink" x="0px" y="0px"
	 viewBox="0 0 21 19" style="enable-background:new 0 0 21 19;" xml:space="preserve">
<style type="text/css">
	.st0{fill:none;stroke:#5D6A72;stroke-linecap:round;stroke-linejoin:round;}
</style>
<path class="st0" d="M15.6,12.5c0.5-0.3,1-0.5,1.6-0.5c0.6,0,1.1,0.1,1.6,0.4c0.5,0.3,0.9,0.7,1.2,1.2c0.3,0.5,0.4,1.1,0.3,1.6
	c-1.2,0.4-2.5,0.6-3.7,0.5C16.5,14.6,16.2,13.5,15.6,12.5c-0.5-0.8-1.3-1.5-2.2-2s-1.9-0.7-2.9-0.7c-1,0-2,0.3-2.9,0.7
	c-0.9,0.5-1.6,1.2-2.2,2 M16.5,15.7L16.5,15.7c0,0.3,0,0.5,0,0.7c-1.8,1-3.9,1.6-6,1.6c-2.2,0-4.2-0.6-6-1.6c0-0.2,0-0.5,0-0.7
	 M4.5,15.7c-1.3,0.1-2.5-0.1-3.7-0.5c0-0.6,0.1-1.1,0.3-1.6c0.3-0.5,0.7-0.9,1.2-1.2c0.5-0.3,1-0.4,1.6-0.4c0.6,0,1.1,0.2,1.6,0.5
	 M4.5,15.7c0-1.1,0.3-2.2,0.9-3.2 M13.5,3.8c0,0.8-0.3,1.6-0.9,2.1s-1.3,0.9-2.1,0.9c-0.8,0-1.6-0.3-2.1-0.9
	C7.8,5.3,7.5,4.5,7.5,3.8s0.3-1.6,0.9-2.1c0.6-0.6,1.3-0.9,2.1-0.9c0.8,0,1.6,0.3,2.1,0.9S13.5,3,13.5,3.8z M19.5,6.8
	c0,0.3-0.1,0.6-0.2,0.9c-0.1,0.3-0.3,0.5-0.5,0.7c-0.2,0.2-0.5,0.4-0.7,0.5C17.8,8.9,17.5,9,17.2,9s-0.6-0.1-0.9-0.2
	c-0.3-0.1-0.5-0.3-0.7-0.5c-0.2-0.2-0.4-0.5-0.5-0.7C15.1,7.3,15,7,15,6.8c0-0.6,0.2-1.2,0.7-1.6c0.4-0.4,1-0.7,1.6-0.7
	c0.6,0,1.2,0.2,1.6,0.7C19.3,5.6,19.5,6.2,19.5,6.8z M6,6.8C6,7,5.9,7.3,5.8,7.6C5.7,7.9,5.5,8.1,5.3,8.3C5.1,8.5,4.9,8.7,4.6,8.8
	C4.3,8.9,4,9,3.7,9C3.5,9,3.2,8.9,2.9,8.8C2.6,8.7,2.4,8.5,2.2,8.3C2,8.1,1.8,7.9,1.7,7.6C1.6,7.3,1.5,7,1.5,6.8
	c0-0.6,0.2-1.2,0.7-1.6c0.4-0.4,1-0.7,1.6-0.7c0.6,0,1.2,0.2,1.6,0.7C5.8,5.6,6,6.2,6,6.8z"/>
</svg>
