<svg width="21" height="20" viewBox="0 0 21 20" fill="none" xmlns="http://www.w3.org/2000/svg">
<path d="M13.5 17.128C14.353 17.3757 15.2368 17.5009 16.125 17.5C17.5534 17.5021 18.9633 17.1764 20.246 16.548C20.2839 15.6517 20.0286 14.7675 19.5188 14.0293C19.009 13.2912 18.2724 12.7394 17.4207 12.4575C16.5691 12.1757 15.6487 12.1791 14.7992 12.4674C13.9497 12.7557 13.2173 13.313 12.713 14.055M13.5 17.128V17.125C13.5 16.012 13.214 14.965 12.713 14.055M13.5 17.128V17.234C11.5755 18.3931 9.37064 19.0038 7.12402 19C4.79302 19 2.61202 18.355 0.750024 17.234L0.749024 17.125C0.748257 15.7095 1.21864 14.3339 2.08601 13.2153C2.95338 12.0966 4.1684 11.2984 5.53951 10.9466C6.91063 10.5948 8.35985 10.7093 9.65869 11.2721C10.9575 11.8349 12.0321 12.814 12.713 14.055M10.5 4.375C10.5 5.27011 10.1444 6.12855 9.51151 6.76149C8.87857 7.39442 8.02013 7.75 7.12502 7.75C6.22992 7.75 5.37147 7.39442 4.73854 6.76149C4.1056 6.12855 3.75002 5.27011 3.75002 4.375C3.75002 3.47989 4.1056 2.62145 4.73854 1.98851C5.37147 1.35558 6.22992 1 7.12502 1C8.02013 1 8.87857 1.35558 9.51151 1.98851C10.1444 2.62145 10.5 3.47989 10.5 4.375ZM18.75 6.625C18.75 7.32119 18.4735 7.98887 17.9812 8.48116C17.4889 8.97344 16.8212 9.25 16.125 9.25C15.4288 9.25 14.7612 8.97344 14.2689 8.48116C13.7766 7.98887 13.5 7.32119 13.5 6.625C13.5 5.92881 13.7766 5.26113 14.2689 4.76884C14.7612 4.27656 15.4288 4 16.125 4C16.8212 4 17.4889 4.27656 17.9812 4.76884C18.4735 5.26113 18.75 5.92881 18.75 6.625Z" stroke="#F9F9FA" stroke-linecap="round" stroke-linejoin="round"/>
</svg>
