<svg width="19" height="20" viewBox="0 0 19 20" fill="none" xmlns="http://www.w3.org/2000/svg">
<path d="M6.5 15.25V16.257C6.50005 16.6511 6.42244 17.0414 6.27162 17.4055C6.1208 17.7696 5.89971 18.1004 5.621 18.379L5 19H14L13.379 18.379C13.1003 18.1004 12.8792 17.7696 12.7284 17.4055C12.5776 17.0414 12.5 16.6511 12.5 16.257V15.25M18.5 3.25V13C18.5 13.5967 18.2629 14.169 17.841 14.591C17.419 15.0129 16.8467 15.25 16.25 15.25H2.75C2.15326 15.25 1.58097 15.0129 1.15901 14.591C0.737053 14.169 0.5 13.5967 0.5 13V3.25M18.5 3.25C18.5 2.65326 18.2629 2.08097 17.841 1.65901C17.419 1.23705 16.8467 1 16.25 1H2.75C2.15326 1 1.58097 1.23705 1.15901 1.65901C0.737053 2.08097 0.5 2.65326 0.5 3.25M18.5 3.25V10C18.5 10.5967 18.2629 11.169 17.841 11.591C17.419 12.0129 16.8467 12.25 16.25 12.25H2.75C2.15326 12.25 1.58097 12.0129 1.15901 11.591C0.737053 11.169 0.5 10.5967 0.5 10V3.25" stroke="#F9F9FA" stroke-linecap="round" stroke-linejoin="round"/>
</svg>
