<?xml version="1.0" encoding="utf-8"?>
<!-- Generator: Adobe Illustrator 27.8.1, SVG Export Plug-In . SVG Version: 6.00 Build 0)  -->
<svg version="1.1" id="Layer_1" xmlns="http://www.w3.org/2000/svg" xmlns:xlink="http://www.w3.org/1999/xlink" x="0px" y="0px"
	 viewBox="0 0 512 512" style="enable-background:new 0 0 512 512;" xml:space="preserve">
<style type="text/css">
	.st0{fill:#5D6A72;}
</style>
<path class="st0" d="M383.2,77.7h-2.9V29c0-9.6-4.3-18-12.2-23.6c-7.9-5.6-17.2-6.9-26.4-3.7l-214.5,76
	c-17.9,0.8-32.2,15.6-32.2,33.7v366.9c0,18.6,15.1,33.7,33.7,33.7h254.5c18.6,0,33.7-15.1,33.7-33.7V111.4
	C416.9,92.8,401.8,77.7,383.2,77.7L383.2,77.7z M347.1,16.8c4.2-1.5,8.2-0.9,11.8,1.6c3.6,2.6,5.5,6.1,5.5,10.6v48.7H175.3
	L347.1,16.8z M401,478.3c0,9.8-8,17.7-17.7,17.7H128.8c-9.8,0-17.7-8-17.7-17.7V111.4c0-9.8,7.9-17.7,17.7-17.7h0h0.1h254.4
	c9.8,0,17.7,7.9,17.7,17.7L401,478.3L401,478.3z M370.8,163.6c0,4.4-3.6,8-8,8H254c-4.4,0-8-3.6-8-8s3.6-8,8-8h108.7
	C367.2,155.6,370.8,159.2,370.8,163.6z M246.1,202.1c0-4.4,3.6-8,8-8h48.2c4.4,0,8,3.6,8,8s-3.6,8-8,8H254
	C249.6,210.1,246.1,206.5,246.1,202.1z M204,143.1h-45.9c-9.3,0-16.8,7.5-16.8,16.8v45.9c0,9.2,7.5,16.8,16.8,16.8H204
	c9.3,0,16.8-7.5,16.8-16.8v-45.9C220.8,150.6,213.3,143.1,204,143.1z M204.8,205.8c0,0.4-0.4,0.8-0.8,0.8h-45.9
	c-0.4,0-0.8-0.4-0.8-0.8v-45.9c0-0.4,0.4-0.8,0.8-0.8H204c0.4,0,0.8,0.4,0.8,0.8V205.8z M204,255.1h-45.9c-9.3,0-16.8,7.5-16.8,16.8
	v46c0,9.2,7.5,16.8,16.8,16.8H204c9.3,0,16.8-7.5,16.8-16.8v-46C220.8,262.6,213.3,255.1,204,255.1L204,255.1z M204.8,317.8
	c0,0.4-0.4,0.8-0.8,0.8h-45.9c-0.4,0-0.8-0.4-0.8-0.8v-46c0-0.4,0.4-0.8,0.8-0.8H204c0.4,0,0.8,0.4,0.8,0.8V317.8z M204,367.1h-45.9
	c-9.3,0-16.8,7.5-16.8,16.8v45.9c0,9.3,7.5,16.8,16.8,16.8H204c9.3,0,16.8-7.5,16.8-16.8v-45.9C220.8,374.6,213.3,367.1,204,367.1z
	 M204.8,429.8c0,0.4-0.4,0.8-0.8,0.8h-45.9c-0.4,0-0.8-0.4-0.8-0.8v-45.9c0-0.4,0.4-0.8,0.8-0.8H204c0.4,0,0.8,0.4,0.8,0.8V429.8z
	 M370.8,275.6c0,4.4-3.6,8-8,8H254c-4.4,0-8-3.6-8-8s3.6-8,8-8h108.7C367.2,267.6,370.8,271.2,370.8,275.6z M246.1,314.1
	c0-4.4,3.6-8,8-8h48.2c4.4,0,8,3.6,8,8s-3.6,8-8,8H254C249.6,322.1,246.1,318.5,246.1,314.1z M370.8,387.6c0,4.4-3.6,8-8,8H254
	c-4.4,0-8-3.6-8-8s3.6-8,8-8h108.7C367.2,379.6,370.8,383.2,370.8,387.6z M310.3,426.1c0,4.4-3.6,8-8,8H254c-4.4,0-8-3.6-8-8
	s3.6-8,8-8h48.2C306.7,418.1,310.3,421.7,310.3,426.1z"/>
</svg>
