<?xml version="1.0" encoding="utf-8"?>
<!-- Generator: Adobe Illustrator 27.8.1, SVG Export Plug-In . SVG Version: 6.00 Build 0)  -->
<svg version="1.1" id="Capa_1" xmlns="http://www.w3.org/2000/svg" xmlns:xlink="http://www.w3.org/1999/xlink" x="0px" y="0px"
	 viewBox="0 0 512 512" style="enable-background:new 0 0 512 512;" xml:space="preserve">
<style type="text/css">
	.st0{fill:#5D6A72;}
</style>
<g>
	<g>
		<path class="st0" d="M470.1,80.7c-3.9-20.7-20.6-36.9-41.5-40.1C424.2,17.5,403.8,0,379.5,0h-250c-24.6,0-45,17.8-49.2,41.2
			C60.8,45.4,45.6,61,41.9,80.7C18.2,84.6,0,105.2,0,130v372c0,5.5,4.5,10,10,10h492c5.5,0,10-4.5,10-10V130
			C512,105.2,493.8,84.6,470.1,80.7z M129.5,20h250c13,0,24.2,8.4,28.3,20H101.2C105.3,28.4,116.5,20,129.5,20z M91,60h330
			c13,0,24.2,8.4,28.3,20H62.7C66.8,68.4,78,60,91,60z M492,492H20V130c0-16.5,13.5-30,30-30h412c16.5,0,30,13.5,30,30V492z"/>
	</g>
</g>
<g>
	<g>
		<path class="st0" d="M218,279.1c-5.5-4-11.7-7.3-18.5-10c6.6-11,10.5-24,10.5-38.1c0-38.6-29.2-70-65-70s-65,31.4-65,70
			c0,14,3.9,27.1,10.5,38.1c-6.8,2.7-13,6.1-18.5,10.1c-21.2,15.3-32,39.2-32,70.9v73c0,5.5,4.5,10,10,10h190c5.5,0,10-4.5,10-10
			v-73C250,318.3,239.2,294.4,218,279.1z M145,181c24.8,0,45,22.4,45,50s-20.2,50-45,50s-45-22.4-45-50S120.2,181,145,181z M230,413
			h-20v-59c0-5.5-4.5-10-10-10s-10,4.5-10,10v59h-90v-59c0-5.5-4.5-10-10-10s-10,4.5-10,10v59H60v-63c0-34,14.5-55.4,44.1-64.6
			c11.2,9.8,25.4,15.6,40.9,15.6c15.5,0,29.7-5.9,40.9-15.6C215.5,294.6,230,316,230,350V413z"/>
	</g>
</g>
<g>
	<g>
		<path class="st0" d="M462.1,200H280c-5.5,0-10,4.5-10,10s4.5,10,10,10h182.1c5.5,0,10-4.5,10-10S467.6,200,462.1,200z"/>
	</g>
</g>
<g>
	<g>
		<path class="st0" d="M442.1,160H300c-5.5,0-10,4.5-10,10s4.5,10,10,10h142.1c5.5,0,10-4.5,10-10S447.6,160,442.1,160z"/>
	</g>
</g>
<g>
	<g>
		<path class="st0" d="M462,292H320c-5.5,0-10,4.5-10,10s4.5,10,10,10h142c5.5,0,10-4.5,10-10S467.5,292,462,292z"/>
	</g>
</g>
<g>
	<g>
		<path class="st0" d="M372,332c-5.5,0-10,4.5-10,10s4.5,10,10,10s10-4.5,10-10S377.5,332,372,332z"/>
	</g>
</g>
<g>
	<g>
		<path class="st0" d="M332,332h-50c-5.5,0-10,4.5-10,10s4.5,10,10,10h50c5.5,0,10-4.5,10-10S337.5,332,332,332z"/>
	</g>
</g>
<g>
	<g>
		<path class="st0" d="M462,332h-50c-5.5,0-10,4.5-10,10s4.5,10,10,10h50c5.5,0,10-4.5,10-10S467.5,332,462,332z"/>
	</g>
</g>
<g>
	<g>
		<path class="st0" d="M462,372c-5.5,0-10,4.5-10,10s4.5,10,10,10c5.5,0,10-4.5,10-10S467.5,372,462,372z"/>
	</g>
</g>
<g>
	<g>
		<path class="st0" d="M422,372H280c-5.5,0-10,4.5-10,10s4.5,10,10,10h142c5.5,0,10-4.5,10-10S427.5,372,422,372z"/>
	</g>
</g>
<g>
	<g>
		<path class="st0" d="M422,412H280c-5.5,0-10,4.5-10,10s4.5,10,10,10h142c5.5,0,10-4.5,10-10S427.5,412,422,412z"/>
	</g>
</g>
</svg>
