<svg width="19" height="20" viewBox="0 0 19 20" fill="none" xmlns="http://www.w3.org/2000/svg">
<path d="M17.7501 12.15V16.4C17.7501 17.494 16.9631 18.436 15.8781 18.58C13.7911 18.857 11.6621 19 9.50006 19C7.33806 19 5.20906 18.857 3.12206 18.58C2.03706 18.436 1.25006 17.494 1.25006 16.4V12.15M17.7501 12.15C17.9875 11.9436 18.1775 11.6883 18.307 11.4016C18.4364 11.1149 18.5023 10.8036 18.5001 10.489V6.706C18.5001 5.625 17.7321 4.691 16.6631 4.531C15.5304 4.36142 14.392 4.23234 13.2501 4.144M17.7501 12.15C17.5561 12.315 17.3301 12.445 17.0771 12.53C14.6333 13.3408 12.0748 13.7528 9.50006 13.75C6.85206 13.75 4.30506 13.321 1.92306 12.53C1.67631 12.4479 1.44778 12.3189 1.25006 12.15M1.25006 12.15C1.0126 11.9436 0.822616 11.6883 0.693154 11.4016C0.563692 11.1149 0.497818 10.8036 0.500055 10.489V6.706C0.500055 5.625 1.26806 4.691 2.33706 4.531C3.46975 4.36142 4.60814 4.23233 5.75006 4.144M13.2501 4.144V3.25C13.2501 2.65326 13.013 2.08097 12.591 1.65901C12.1691 1.23705 11.5968 1 11.0001 1H8.00006C7.40332 1 6.83102 1.23705 6.40907 1.65901C5.98711 2.08097 5.75006 2.65326 5.75006 3.25V4.144M13.2501 4.144C10.7538 3.95108 8.24633 3.95108 5.75006 4.144M9.50006 10.75H9.50806V10.758H9.50006V10.75Z" stroke="#F9F9FA" stroke-linecap="round" stroke-linejoin="round"/>
</svg>
