<?xml version="1.0" encoding="utf-8"?>
<!-- Generator: Adobe Illustrator 27.8.1, SVG Export Plug-In . SVG Version: 6.00 Build 0)  -->
<svg version="1.1" id="ICON" xmlns="http://www.w3.org/2000/svg" xmlns:xlink="http://www.w3.org/1999/xlink" x="0px" y="0px"
	 viewBox="0 0 32 32" style="enable-background:new 0 0 32 32;" xml:space="preserve">
<style type="text/css">
	.st0{fill:#5D6A72;}
</style>
<path class="st0" d="M8,13c0-0.6,0.4-1,1-1h6c0.6,0,1,0.4,1,1s-0.4,1-1,1H9C8.4,14,8,13.6,8,13z M15,16H9c-0.6,0-1,0.4-1,1
	s0.4,1,1,1h6c0.6,0,1-0.4,1-1S15.6,16,15,16z M15,20H9c-0.6,0-1,0.4-1,1s0.4,1,1,1h6c0.6,0,1-0.4,1-1S15.6,20,15,20z M15,24H9
	c-0.6,0-1,0.4-1,1s0.4,1,1,1h6c0.6,0,1-0.4,1-1S15.6,24,15,24z M30,29c0,0.6-0.4,1-1,1H3c-0.6,0-1-0.4-1-1s0.4-1,1-1h1V9.6
	c0-0.8,0.4-1.4,1.1-1.8l12-6c0.6-0.3,1.4-0.3,1.9,0.1s0.9,1,0.9,1.7V11h6c1.1,0,2,0.9,2,2v15h1C29.6,28,30,28.4,30,29L30,29z M20,13
	v15h6V13H20z M6,28h12V3.6l-12,6V28z"/>
</svg>
