<?xml version="1.0" encoding="utf-8"?>
<!-- Generator: Adobe Illustrator 27.6.1, SVG Export Plug-In . SVG Version: 6.00 Build 0)  -->
<svg version="1.1" id="Layer_1" xmlns="http://www.w3.org/2000/svg" xmlns:xlink="http://www.w3.org/1999/xlink" x="0px" y="0px"
	 viewBox="0 0 512 512" style="enable-background:new 0 0 512 512;" xml:space="preserve">
<style type="text/css">
	.st0{fill:#FFFFFF;}
</style>
<g>
	<path class="st0" d="M500.6,430.2V211.3c2.9-32.6-35.2-59.6-54.6-80.5c-0.3-0.2-0.6-0.4-0.9-0.6l-15.4-15.4V54.2
		c0-27.6-22.4-49.9-50-49.9H131.8c-27.6,0-49.9,22.4-49.9,49.9v60.6l-15.4,15.4c-0.3,0.2-0.6,0.4-0.9,0.6l-36.4,36.3
		c-11.8,11.7-18.4,27.6-18.3,44.2v218.9c0.1,5.8,1.3,11.4,0,17c-0.2,33.1,27.6,60.6,60.6,60.5h368.6
		C483.4,506.8,504.7,470.1,500.6,430.2L500.6,430.2z M429.7,150.9l34.6,34.3c6.9,6.9,10.8,16.3,10.8,26.1v14l-45.4,21.9L429.7,150.9
		z M107.5,54.2c0-13.4,10.9-24.3,24.3-24.3h247.9c13.4,0,24.3,10.9,24.3,24.3v205.4l-129.7,62.7c-11.7,5.8-25.5,5.8-37.2,0
		l-129.7-62.7L107.5,54.2z M36.5,211.2c0-9.8,3.9-19.2,10.8-26.1l34.6-34.3v96.4l-45.4-21.9V211.2z M475.1,430.2
		c-0.4,31.9-11.5,51.1-34.8,52H71.5c-2.8-0.1-5.7-0.3-8.4-1.2c-16.7-4.5-26.5-22.7-26.5-50.8V253.8l189.4,91.6
		c18.8,9.2,40.8,9.2,59.5,0l189.4-91.6V430.2z"/>
	<path class="st0" d="M365.4,166.7c0-7.1-5.7-12.8-12.8-12.8H159c-7.1,0-12.8,5.7-12.8,12.8c0,7.1,5.7,12.8,12.8,12.8h193.6
		C359.6,179.5,365.4,173.7,365.4,166.7z"/>
	<path class="st0" d="M325.5,232.8c0-7.1-5.7-12.8-12.8-12.8H198.8c-7.1,0-12.8,5.7-12.8,12.8c0,7.1,5.7,12.8,12.8,12.8h113.9
		C319.8,245.6,325.5,239.9,325.5,232.8z"/>
	<path class="st0" d="M198.8,113.3c1.3,0,114.4,0,113.9,0c16.7-0.1,16.8-25.5,0-25.6H198.8C182.1,87.8,182.1,113.3,198.8,113.3
		L198.8,113.3z"/>
</g>
</svg>
