<?xml version="1.0" encoding="utf-8"?>
<!-- Generator: Adobe Illustrator 27.6.1, SVG Export Plug-In . SVG Version: 6.00 Build 0)  -->
<svg version="1.1" id="Layer_1" xmlns="http://www.w3.org/2000/svg" xmlns:xlink="http://www.w3.org/1999/xlink" x="0px" y="0px"
	 viewBox="0 0 21 20" style="enable-background:new 0 0 21 20;" xml:space="preserve">
<style type="text/css">
	.st0{fill:none;stroke:#5D6A72;stroke-linecap:round;stroke-linejoin:round;}
</style>
<path class="st0" d="M13.5,17.1c0.9,0.2,1.7,0.4,2.6,0.4c1.4,0,2.8-0.3,4.1-1c0-0.9-0.2-1.8-0.7-2.5s-1.2-1.3-2.1-1.6
	s-1.8-0.3-2.6,0s-1.6,0.8-2.1,1.6 M13.5,17.1L13.5,17.1c0-1.1-0.3-2.2-0.8-3.1 M13.5,17.1v0.1C11.6,18.4,9.4,19,7.1,19
	s-4.5-0.6-6.4-1.8v-0.1c0-1.4,0.5-2.8,1.3-3.9c0.9-1.1,2.1-1.9,3.5-2.3c1.4-0.4,2.8-0.2,4.1,0.3c1.3,0.6,2.4,1.5,3.1,2.8 M10.5,4.4
	c0,0.9-0.4,1.8-1,2.4s-1.5,1-2.4,1s-1.8-0.4-2.4-1s-1-1.5-1-2.4s0.4-1.8,1-2.4s1.5-1,2.4-1s1.8,0.4,2.4,1S10.5,3.5,10.5,4.4z
	 M18.8,6.6c0,0.7-0.3,1.4-0.8,1.9s-1.2,0.8-1.9,0.8c-0.7,0-1.4-0.3-1.9-0.8s-0.8-1.2-0.8-1.9s0.3-1.4,0.8-1.9
	C14.8,4.3,15.4,4,16.1,4s1.4,0.3,1.9,0.8S18.8,5.9,18.8,6.6z"/>
</svg>
