<?xml version="1.0" encoding="utf-8"?>
<!-- Generator: Adobe Illustrator 27.8.1, SVG Export Plug-In . SVG Version: 6.00 Build 0)  -->
<svg version="1.1" id="Capa_1" xmlns="http://www.w3.org/2000/svg" xmlns:xlink="http://www.w3.org/1999/xlink" x="0px" y="0px"
	 viewBox="0 0 512 512" style="enable-background:new 0 0 512 512;" xml:space="preserve">
<style type="text/css">
	.st0{fill:none;stroke:#FFFFFF;stroke-width:20;stroke-linecap:round;stroke-linejoin:round;stroke-miterlimit:10;}
</style>
<g>
	<g>
		<circle class="st0" cx="221.2" cy="198.9" r="109.2"/>
		<g>
			<path class="st0" d="M239.2,168c-4.1-5.8-14.2-10.1-27.6-6.1c-12.2,3.7-17.7,23.3-1.8,30.8c2.5,1.2,8.9,3.7,18.6,7.1
				c21.7,7.7,22.4,36.1-3.3,38.4c-8.6,0.7-20.8-1.6-27.3-9.6"/>
			<line class="st0" x1="220.2" y1="239.1" x2="220.2" y2="245.8"/>
			<line class="st0" x1="220.2" y1="152.1" x2="220.2" y2="159.9"/>
		</g>
	</g>
	<g>
		<g>
			<polygon class="st0" points="336.6,83.5 410.3,83.5 336.6,10 			"/>
			<path class="st0" d="M410.3,300.8V83.5L336.6,10H84.5c-25,0-45.3,20.3-45.3,45.3v401.5c0,25,20.3,45.3,45.3,45.3h280.6
				c25,0,45.3-20.3,45.3-45.3v-27.3"/>
		</g>
		<g>
			<ellipse class="st0" cx="410.3" cy="364.7" rx="62.5" ry="62.3"/>
			<polyline class="st0" points="391.6,366.7 409.6,382.8 431.6,354.4 			"/>
		</g>
		<line class="st0" x1="142.6" y1="364.7" x2="307" y2="364.7"/>
		<line class="st0" x1="142.6" y1="420.7" x2="307" y2="420.7"/>
	</g>
</g>
</svg>
