<svg width="25" height="28" viewBox="0 0 25 28" fill="none" xmlns="http://www.w3.org/2000/svg">
<path d="M20.5111 16.6152V4.87327C20.5111 4.69474 20.4539 4.45613 20.3326 4.33711L16.7562 0.760746C16.6372 0.641725 16.3391 0.582214 16.16 0.582214H2.03366C1.02027 0.582214 0.245483 1.357 0.245483 2.37039V25.0199C0.245483 26.0333 1.02027 26.8081 2.03366 26.8081H14.5509C15.5643 27.5234 16.7562 28 18.1273 28C21.4055 28 24.0881 25.318 24.0881 22.0392C24.0875 19.6554 22.5974 17.5691 20.5111 16.6152ZM16.9348 2.66737L18.4843 4.21694H17.531C17.1734 4.21694 16.9348 3.97832 16.9348 3.62069V2.66737ZM2.03366 25.6757C1.67603 25.6757 1.43741 25.437 1.43741 25.0794V2.42933C1.43741 2.0717 1.67603 1.83308 2.03366 1.83308H15.7428V3.62126C15.7428 4.63466 16.5176 5.40944 17.531 5.40944H19.3192V16.2575C18.9258 16.1854 18.5272 16.1456 18.1273 16.1385C14.849 16.1385 12.1665 18.8211 12.1665 22.0993C12.1665 23.4726 12.6431 24.6623 13.3584 25.6757H2.03366ZM18.1273 26.8676C17.1842 26.8676 16.2623 26.5879 15.4782 26.064C14.694 25.54 14.0829 24.7953 13.722 23.924C13.3611 23.0528 13.2666 22.094 13.4506 21.1691C13.6346 20.2441 14.0887 19.3945 14.7556 18.7276C15.4224 18.0608 16.2721 17.6066 17.197 17.4226C18.122 17.2387 19.0807 17.3331 19.952 17.694C20.8233 18.0549 21.568 18.666 22.092 19.4502C22.6159 20.2343 22.8956 21.1562 22.8956 22.0993C22.8918 23.3628 22.3882 24.5734 21.4948 25.4668C20.6014 26.3602 19.3907 26.8638 18.1273 26.8676Z" fill="white"/>
<path d="M5.01379 8.98581H10.3783C10.736 8.98581 10.9746 8.74719 10.9746 8.38955C10.9746 8.03192 10.736 7.7933 10.3783 7.7933H5.01379C4.65616 7.7933 4.41754 8.03192 4.41754 8.38955C4.41754 8.74719 4.65616 8.98581 5.01379 8.98581Z" fill="white"/>
<path d="M5.01379 11.9659H15.7429C16.1005 11.9659 16.3391 11.7273 16.3391 11.3696C16.3391 11.012 16.1005 10.774 15.7429 10.774H5.01379C4.65616 10.774 4.41754 11.0126 4.41754 11.3702C4.41754 11.7278 4.65616 11.9659 5.01379 11.9659Z" fill="white"/>
<path d="M13.9547 14.3503C13.9547 13.9927 13.7161 13.7541 13.3584 13.7541H5.01379C4.65616 13.7541 4.41754 13.9927 4.41754 14.3503C4.41754 14.708 4.65616 14.9466 5.01379 14.9466H13.3584C13.7161 14.9466 13.9547 14.708 13.9547 14.3503Z" fill="white"/>
<path d="M20.1536 19.7744C19.8554 19.6554 19.4978 19.7744 19.3788 20.013L17.9482 22.8741L16.7563 21.6821C16.7017 21.6266 16.6366 21.5824 16.5648 21.5521C16.4931 21.5218 16.416 21.5061 16.3381 21.5057C16.2602 21.5054 16.183 21.5205 16.111 21.5502C16.0389 21.5798 15.9735 21.6234 15.9184 21.6785C15.8633 21.7336 15.8197 21.7991 15.79 21.8711C15.7604 21.9431 15.7453 22.0203 15.7456 22.0982C15.7459 22.1761 15.7617 22.2532 15.792 22.325C15.8223 22.3968 15.8665 22.4618 15.922 22.5164L17.7102 24.3069C17.7626 24.3652 17.8271 24.4114 17.8991 24.4423C17.9711 24.4732 18.049 24.4881 18.1273 24.486H18.2464C18.4255 24.4288 18.604 24.3075 18.6635 24.1879L20.4494 20.6092C20.5066 20.4575 20.5082 20.2905 20.4541 20.1377C20.3999 19.9849 20.2935 19.8562 20.1536 19.7744Z" fill="white"/>
</svg>
