<?xml version="1.0" encoding="utf-8"?>
<!-- Generator: Adobe Illustrator 27.6.1, SVG Export Plug-In . SVG Version: 6.00 Build 0)  -->
<svg version="1.1" id="Layer_1" xmlns="http://www.w3.org/2000/svg" xmlns:xlink="http://www.w3.org/1999/xlink" x="0px" y="0px"
	 viewBox="0 0 21 18" style="enable-background:new 0 0 21 18;" xml:space="preserve">
<style type="text/css">
	.st0{fill:none;stroke:#5D6A72;stroke-linecap:round;stroke-linejoin:round;}
</style>
<path class="st0" d="M0.8,14.8c5.3,0,10.6,0.7,15.8,2.1c0.7,0.2,1.5-0.3,1.5-1.1v-1 M2.2,0.5v0.8c0,0.2-0.1,0.4-0.2,0.5S1.7,2,1.5,2
	H0.8 M0.8,2V1.6c0-0.6,0.5-1.1,1.1-1.1h16.9 M0.8,2v9 M18.8,0.5v0.8c0,0.4,0.3,0.8,0.8,0.8h0.8 M18.8,0.5h0.4c0.6,0,1.1,0.5,1.1,1.1
	v9.8c0,0.6-0.5,1.1-1.1,1.1h-0.4 M0.8,11v0.4c0,0.3,0.1,0.6,0.3,0.8c0.2,0.2,0.5,0.3,0.8,0.3h0.4 M0.8,11h0.8c0.2,0,0.4,0.1,0.5,0.2
	c0.1,0.1,0.2,0.3,0.2,0.5v0.8 M18.8,12.5v-0.8c0-0.2,0.1-0.4,0.2-0.5c0.1-0.1,0.3-0.2,0.5-0.2h0.8 M18.8,12.5H2.2 M13.5,6.5
	c0,0.8-0.3,1.6-0.9,2.1c-0.6,0.6-1.3,0.9-2.1,0.9c-0.8,0-1.6-0.3-2.1-0.9C7.8,8.1,7.5,7.3,7.5,6.5s0.3-1.6,0.9-2.1s1.3-0.9,2.1-0.9
	c0.8,0,1.6,0.3,2.1,0.9S13.5,5.7,13.5,6.5z M16.5,6.5L16.5,6.5L16.5,6.5L16.5,6.5L16.5,6.5z M4.5,6.5L4.5,6.5L4.5,6.5L4.5,6.5
	L4.5,6.5z"/>
</svg>
