<svg width="48" height="48" viewBox="0 0 48 48" fill="none" xmlns="http://www.w3.org/2000/svg">
<path d="M32.8417 17.5512C32.7095 17.0086 32.473 16.5356 32.139 16.146C31.7982 15.7147 31.2973 15.3808 30.6017 15.1095C29.9964 14.8869 29.2869 14.7965 28.4938 14.8312C27.7564 14.866 27.0469 14.9982 26.4417 15.2208C25.266 15.6034 24.1251 16.2782 22.8451 17.3495C21.9269 18.1425 21.0295 19.0956 20.0347 20.3617C19.4364 21.1617 18.9843 21.8156 18.5738 22.4834C18.4695 22.6712 18.4486 22.8799 18.5112 23.0747C18.5808 23.2904 18.7547 23.4782 18.9773 23.5756C19.3043 23.7564 19.8956 23.826 20.2086 23.3878C21.7738 20.8417 23.4086 18.9982 25.1964 17.7599C26.8799 16.6469 29.3425 16.0347 30.553 16.9321C31.499 17.6347 31.2973 19.1095 30.9634 20.2295C30.7199 21.0712 30.3582 21.9547 29.8434 22.9495C29.4677 23.7078 29.106 24.3617 28.7095 25.0156C27.8956 26.3651 26.9982 27.6382 26.059 28.7999C24.139 31.1512 22.0173 33.0991 19.7495 34.5878C19.2277 34.9286 18.6921 35.2486 18.0869 35.5965C16.6956 36.2921 14.0938 36.9599 12.6538 36.2851C12.0277 35.993 11.5756 35.4225 11.4156 34.7408C11.3669 34.5043 11.3669 34.226 11.3669 33.9617C11.3669 33.4469 11.4364 32.9112 11.5756 32.2712C11.826 31.2069 12.2086 30.1634 12.6817 29.2451C13.5095 27.6799 14.3095 26.3373 15.1234 25.1408C15.9095 23.9582 16.8625 22.706 18.0382 21.3147C18.9982 20.153 20.9112 18.2469 21.7251 17.4399C21.8782 17.2869 21.9895 17.1756 22.0382 17.1269C22.3721 16.7791 22.4208 16.5008 22.1982 16.1947C22.0382 15.9721 21.739 15.8051 21.433 15.7634C21.1895 15.7286 20.9669 15.7773 20.7999 15.9095C19.5338 16.8973 18.4138 18.1217 17.1825 19.506C16.139 20.6538 15.1304 21.9269 14.0938 23.3878C13.1477 24.7373 12.2712 26.1286 11.4921 27.5269L11.3321 27.833C11.0747 28.3269 10.8243 28.793 10.6086 29.3008C10.3651 29.8712 10.1704 30.4138 10.0034 30.9634C9.53035 32.4521 9.39122 33.7112 9.57209 34.8243C9.69731 35.4712 10.0104 36.1391 10.4417 36.6678C10.8451 37.1825 11.4295 37.593 12.1738 37.8782C12.7025 38.0799 13.4121 38.1773 14.3443 38.1773C15.1095 38.1773 15.826 38.0591 16.299 37.9756C17.3982 37.746 18.4556 37.3634 19.4503 36.8347C21.8851 35.4643 24.1599 33.6417 26.219 31.4017C28.3686 29.113 30.1912 26.4695 31.6382 23.5408C32.1321 22.5599 32.4869 21.6069 32.7373 20.633C33.0225 19.3738 33.0503 18.3999 32.8417 17.5512Z" fill="white"/>
<path d="M37.3635 20.4592C38.3235 17.2453 38.3166 14.0244 37.3148 10.8105C34.1426 9.80873 30.9774 9.77395 27.8053 10.6783C27.6453 10.7061 27.4853 10.727 27.3253 10.7757C27.3253 10.7757 27.3948 10.7618 27.52 10.7548C27.4505 10.7757 27.3879 10.7896 27.3183 10.8105C27.3253 10.8174 27.4366 10.7826 27.6174 10.7479C28.4731 10.7131 31.1096 10.9148 34.1844 14.1844C34.1844 14.1844 36.8557 16.7374 37.3009 20.32C37.294 20.4592 37.3009 20.6053 37.287 20.7444C37.3079 20.6887 37.3148 20.6331 37.3357 20.5774C37.3426 20.6261 37.3496 20.6748 37.3496 20.7235C37.3496 20.7235 37.3566 20.6261 37.3635 20.4592Z" fill="white"/>
</svg>
