<svg id="Layer_1" viewBox="0 0 101 101" xmlns="http://www.w3.org/2000/svg" data-name="Layer 1"><path d="m98.51 60.82a7.2 7.2 0 0 0 -8.78-1.74l-17.63 9.2a6.76 6.76 0 0 0 -4.48-7s0 0 0 0a19.8 19.8 0 0 0 -16.52-11.53v-19.13h30.76a1.5 1.5 0 0 0 1.14-2.43l-10-12.71 10-12.71a1.5 1.5 0 0 0 -1.14-2.43h-32.26a1.5 1.5 0 0 0 -1.5 1.5v47.92a19.7 19.7 0 0 0 -17.79 15.41 17.39 17.39 0 0 0 -5.53 6.25l-1.18 2.25h-5.77v-.74a4.07 4.07 0 0 0 -4.07-4.06h-7.42a4.07 4.07 0 0 0 -4.08 4.06v23.35a4.07 4.07 0 0 0 4.08 4.06h7.42a4.07 4.07 0 0 0 4.07-4.06v-1.64h39.48a19.81 19.81 0 0 0 11.11-3.4l28.71-20a7.1 7.1 0 0 0 1.38-10.41zm-83.68 35.46a1.07 1.07 0 0 1 -1.07 1.06h-7.42a1.07 1.07 0 0 1 -1.08-1.06v-23.35a1.07 1.07 0 0 1 1.08-1.06h7.42a1.07 1.07 0 0 1 1.07 1.06zm55.08-81.73a1.5 1.5 0 0 0 0 1.86l8.85 11.21h-27.66v-24.28h27.66zm-20.31 38.14a16.81 16.81 0 0 1 14.5 8.31 6.79 6.79 0 0 0 -1.87.64l-6.23 3.22a6 6 0 0 1 -5.09.19l-3.84-1.61a17.45 17.45 0 0 0 -13-.22 16.75 16.75 0 0 1 15.53-10.53zm47.55 13.24a4.07 4.07 0 0 1 -1.73 2.84l-28.7 20a16.85 16.85 0 0 1 -9.41 2.87h-39.47v-15h6.67a1.5 1.5 0 0 0 1.33-.81l1.6-3a14.49 14.49 0 0 1 18.44-6.63l3.85 1.62a9 9 0 0 0 7.62-.29l6.25-3.21a3.8 3.8 0 0 1 5 1.45 3.72 3.72 0 0 1 .36 3 3.77 3.77 0 0 1 -1.09 1.74l-7.12 3.71-9.51 4.78a1.5 1.5 0 0 0 -.67 2 1.48 1.48 0 0 0 2 .67l15.8-7.91a6.66 6.66 0 0 0 1.17-.76l21.58-11.26a4.18 4.18 0 0 1 5.1 1 4.07 4.07 0 0 1 .93 3.19z" fill="rgb(0,0,0)"/></svg>