<?xml version="1.0" encoding="utf-8"?>
<!-- Generator: Adobe Illustrator 27.6.1, SVG Export Plug-In . SVG Version: 6.00 Build 0)  -->
<svg version="1.1" id="Layer_1" xmlns="http://www.w3.org/2000/svg" xmlns:xlink="http://www.w3.org/1999/xlink" x="0px" y="0px"
	 viewBox="0 0 101 101" style="enable-background:new 0 0 101 101;" xml:space="preserve">
<style type="text/css">
	.st0{fill:#FFFFFF;}
</style>
<path class="st0" d="M98.5,60.8c-2.2-2.5-5.8-3.3-8.8-1.7l-17.6,9.2c0.3-3.1-1.6-6-4.5-7l0,0c-3-6.6-9.3-11-16.5-11.5V30.6h30.8
	c0.8,0,1.5-0.7,1.5-1.5c0-0.3-0.1-0.6-0.3-0.9L73,15.5L83,2.8c0.5-0.6,0.4-1.6-0.2-2.1c-0.3-0.2-0.6-0.3-0.9-0.3H49.6
	c-0.8,0-1.5,0.7-1.5,1.5v47.9c-8.7,0.6-15.9,6.9-17.8,15.4c-2.3,1.6-4.2,3.7-5.5,6.2l-1.2,2.2h-5.8v-0.7c0-2.2-1.8-4.1-4.1-4.1H6.3
	c-2.2,0-4.1,1.8-4.1,4.1c0,0,0,0,0,0v23.3c0,2.2,1.8,4.1,4.1,4.1c0,0,0,0,0,0h7.4c2.2,0,4.1-1.8,4.1-4.1v-1.6h39.5
	c4,0,7.8-1.2,11.1-3.4l28.7-20c3.2-2.2,4-6.7,1.8-9.9C98.8,61.2,98.7,61,98.5,60.8L98.5,60.8z M14.8,96.3c0,0.6-0.5,1.1-1.1,1.1H6.3
	c-0.6,0-1.1-0.5-1.1-1.1c0,0,0,0,0,0V72.9c0-0.6,0.5-1.1,1.1-1.1c0,0,0,0,0,0h7.4c0.6,0,1.1,0.5,1.1,1.1V96.3z M69.9,14.5
	c-0.4,0.5-0.4,1.3,0,1.9l8.8,11.2H51.1V3.3h27.7L69.9,14.5z M49.6,52.7c6,0,11.5,3.2,14.5,8.3c-0.7,0.1-1.3,0.3-1.9,0.6L56,64.9
	c-1.6,0.8-3.4,0.9-5.1,0.2l-3.8-1.6c-4.1-1.7-8.8-1.8-13-0.2C36.6,56.9,42.8,52.7,49.6,52.7z M97.2,65.9c-0.1,1.1-0.8,2.2-1.7,2.8
	l-28.7,20c-2.8,1.9-6.1,2.9-9.4,2.9H17.8v-15h6.7c0.6,0,1.1-0.3,1.3-0.8l1.6-3c3.5-6.7,11.5-9.5,18.4-6.6l3.8,1.6
	c2.5,1,5.2,0.9,7.6-0.3l6.2-3.2c1.8-0.9,4-0.3,5,1.4c0.5,0.9,0.7,2,0.4,3c-0.2,0.7-0.6,1.3-1.1,1.7l-7.1,3.7L51.2,79
	c-0.7,0.4-1,1.3-0.7,2c0.4,0.7,1.2,1,2,0.7c0,0,0,0,0,0l15.8-7.9c0.4-0.2,0.8-0.5,1.2-0.8l21.6-11.3c1.7-0.9,3.8-0.5,5.1,1
	C97,63.6,97.3,64.8,97.2,65.9z"/>
</svg>
