<?xml version="1.0" encoding="utf-8"?>
<!-- Generator: Adobe Illustrator 27.8.1, SVG Export Plug-In . SVG Version: 6.00 Build 0)  -->
<svg version="1.1" id="Layer_1" xmlns="http://www.w3.org/2000/svg" xmlns:xlink="http://www.w3.org/1999/xlink" x="0px" y="0px"
	 viewBox="0 0 512 512" style="enable-background:new 0 0 512 512;" xml:space="preserve">
<style type="text/css">
	.st0{fill:#5D6A72;}
</style>
<g>
	<path class="st0" d="M160.2,212.7l-45.7,42.6l-9.8-14.1c-3.1-4.5-9.3-5.6-13.7-2.5c-4.5,3.1-5.6,9.3-2.5,13.7l16.3,23.2
		c1.6,2.4,4.2,3.9,7,4.2h1.1c2.5,0,4.9-0.9,6.7-2.6l54.1-50.6c4-3.7,4.2-9.9,0.5-13.9c-3.7-4-9.9-4.2-13.9-0.5V212.7z"/>
	<path class="st0" d="M160.2,286.9l-45.7,42.6l-9.8-14.5c-3.1-4.5-9.3-5.6-13.7-2.5c-4.5,3.1-5.6,9.3-2.5,13.7l0,0l16.3,23.5
		c1.6,2.4,4.2,3.9,7,4.2h1.1c2.5,0,4.9-0.9,6.7-2.6l54.1-50.6c4.6-2.9,6-9,3.1-13.6c-2.9-4.6-9-6-13.6-3.1
		C162,284.8,161,285.8,160.2,286.9L160.2,286.9z"/>
	<path class="st0" d="M160.2,360.5l-45.7,42.6l-9.8-14.1c-3.1-4.5-9.3-5.6-13.7-2.5c-4.5,3.1-5.6,9.3-2.5,13.7l16.3,23.5
		c1.6,2.3,4.2,3.9,7,4.2h1.1c2.5,0,4.9-0.9,6.7-2.6l54.1-50.4c4.1-3.6,4.4-9.8,0.8-13.9c0,0,0,0,0-0.1c-3.7-4.1-10-4.4-14.1-0.7
		C160.3,360.4,160.2,360.5,160.2,360.5z"/>
	<path class="st0" d="M345.3,260.4H212.2c-5.4,0-9.8,4.4-9.8,9.8c0,5.4,4.4,9.8,9.8,9.8h133.1c5.4,0,9.8-4.4,9.8-9.8
		C355.1,264.9,350.7,260.4,345.3,260.4L345.3,260.4z"/>
	<path class="st0" d="M345.3,327.7H212.2c-5.4,0-9.8,4.4-9.8,9.8c0,5.4,4.4,9.8,9.8,9.8h133.1c5.4,0,9.8-4.4,9.8-9.8
		C355.1,332.1,350.7,327.7,345.3,327.7L345.3,327.7z"/>
	<path class="st0" d="M345.3,394.9H212.2c-5.4,0-9.8,4.4-9.8,9.8c0,5.4,4.4,9.8,9.8,9.8h133.1c5.4,0,9.8-4.4,9.8-9.8
		C355.1,399.3,350.7,394.9,345.3,394.9L345.3,394.9z"/>
	<path class="st0" d="M374.1,6c-32.1,0-62.9,13-85.3,36.1h-23c-17.1-26.8-52.7-34.6-79.5-17.5c-7.1,4.5-13.1,10.5-17.6,17.6h-45.7
		c-5.4,0-9.8,4.4-9.8,9.8v16.9H35.3c-5.4,0-9.8,4.4-9.8,9.8l0,0v416.8c0,5.4,4.4,9.8,9.8,9.8h340.4c26.5,0,47.9-21.5,47.9-47.9
		V233.6c59.9-27.4,86.2-98.1,58.8-158C463.1,33.2,420.7,6,374.1,6L374.1,6z M133,61.9h41.5c3.8,0,7.2-2.2,8.8-5.6
		c9.1-18.8,31.7-26.7,50.5-17.7c7.7,3.7,14,9.9,17.7,17.7c1.6,3.4,5.1,5.6,8.8,5.6h13.1c-9,14.4-14.7,30.6-16.9,47.5H133L133,61.9z
		 M404,457.5c0,15.5-12.6,28.1-28.1,28.1H45V88.8h68.1v30.4c0,5.4,4.4,9.8,9.8,9.8H255c1.8,65.5,56.4,117.2,121.9,115.4
		c9.1-0.3,18.2-1.6,27-3.9V457.5z M374.1,225.1c-55,0-99.6-44.6-99.6-99.6s44.6-99.6,99.6-99.6s99.6,44.6,99.6,99.6
		C473.6,180.4,429.1,225,374.1,225.1L374.1,225.1z"/>
	<path class="st0" d="M386.5,81.5c11.3,0,21.2,7.4,21.2,16.1c0,5.4,4.4,9.8,9.8,9.8c5.4,0,9.8-4.4,9.8-9.8
		c0.2-19.7-18.3-35.7-40.9-35.7h-0.7v-5.1c0-5.4-4.4-9.8-9.8-9.8c-5.4,0-9.8,4.4-9.8,9.8v5.1h-4.6c-22.5,0-40.8,16-40.8,35.8V99
		c0.7,14.6,11.2,26.9,25.4,29.9l20,4.1v34.9h-4.6c-11.3,0-21.2-7.4-21.2-16.2c0.4-5.4-3.7-10.1-9.2-10.5c-5.4-0.4-10.1,3.7-10.5,9.2
		c0,0.5,0,1,0,1.5c0,19.8,18.3,35.9,40.9,35.9h4.6v6.4c0,5.4,4.4,9.8,9.8,9.8s9.8-4.4,9.8-9.8v-6.6h0.7c22.5,0,40.8-16.1,40.8-35.9
		v-1.3c-0.4-14.9-11.2-27.6-25.9-30.3l-15.7-3.2V81.5L386.5,81.5z M366.1,112.8l-15.9-3.3c-5.1-1.1-9-5.3-9.8-10.5v-1.4
		c0-8.7,9.7-16.1,21.2-16.1h4.6L366.1,112.8z M397.2,139.3c5.7,0.8,10.1,5.5,10.5,11.3v1.4c0,8.8-9.7,16.2-21.2,16.2h-0.7v-31.2
		L397.2,139.3z"/>
</g>
</svg>
