<?xml version="1.0" encoding="utf-8"?>
<!-- Generator: Adobe Illustrator 27.8.1, SVG Export Plug-In . SVG Version: 6.00 Build 0)  -->
<svg version="1.1" id="Capa_1" xmlns="http://www.w3.org/2000/svg" xmlns:xlink="http://www.w3.org/1999/xlink" x="0px" y="0px"
	 viewBox="0 0 508 508" style="enable-background:new 0 0 508 508;" xml:space="preserve">
<style type="text/css">
	.st0{fill:#5D6A72;}
</style>
<g>
	<g>
		<path class="st0" d="M162.1,90.3c-45.2,0-81.9,36.8-81.9,81.9s36.7,81.9,81.9,81.9c45.1,0,81.9-36.7,81.9-81.9
			S207.3,90.3,162.1,90.3z M162.1,237.7c-36.1,0-65.5-29.4-65.5-65.5s29.3-65.5,65.5-65.5c36.1,0,65.5,29.4,65.5,65.5
			S198.2,237.7,162.1,237.7z"/>
	</g>
</g>
<g>
	<g>
		<path class="st0" d="M384.9,155.8c-36.1,0-65.5,29.4-65.5,65.5s29.4,65.5,65.5,65.5s65.5-29.4,65.5-65.5S421,155.8,384.9,155.8z
			 M384.9,270.4c-27.1,0-49.1-22-49.1-49.1s22-49.1,49.1-49.1s49.1,22,49.1,49.1S412,270.4,384.9,270.4z"/>
	</g>
</g>
<g>
	<g>
		<path class="st0" d="M431.8,289.4l-46.9,65.7L338,289.4c0,0-21.9,9.2-38.7,25.8c-29.5-47-73.4-63.4-73.4-63.4l-63.8,89.4
			l-63.8-89.4c0,0-103.9,39.5-98.1,165.9h507.6C512.5,315.9,431.8,289.4,431.8,289.4z M307.6,401.5H16.5c0,0-4.3-84.9,76.5-128.7
			l69.1,96.7l69.1-96.7C312.5,318.4,307.6,401.5,307.6,401.5z M324,401.5L324,401.5c0,0,1.1-38.2-16.5-71.2
			c7.4-7.9,15.9-14.6,25.3-19.9l52.1,72.9l52.1-72.9c33.2,18.6,53.8,52.9,54.3,91.1H324z"/>
	</g>
</g>
</svg>
