<?xml version="1.0" encoding="utf-8"?>
<!-- Generator: Adobe Illustrator 27.6.1, SVG Export Plug-In . SVG Version: 6.00 Build 0)  -->
<svg version="1.1" id="Layer_1" xmlns="http://www.w3.org/2000/svg" xmlns:xlink="http://www.w3.org/1999/xlink" x="0px" y="0px"
	 viewBox="0 0 512 512" style="enable-background:new 0 0 512 512;" xml:space="preserve">
<style type="text/css">
	.st0{fill:#FFFFFF;}
</style>
<path class="st0" d="M341.3,480h-256C55.9,480,32,456.1,32,426.7V85.3C32,55.9,55.9,32,85.3,32h164.9c14.3,0,28.1,5.8,38.2,16
	l91.1,93.2c9.8,10,15.2,23.4,15.2,37.3V258c0,5.9-4.8,10.7-10.7,10.7c-5.9,0-10.7-4.8-10.7-10.7v-79.5c0-8.4-3.3-16.4-9.1-22.4
	l-91.1-93.2c-6-6.1-14.3-9.6-22.9-9.6H85.3c-17.7,0-32,14.3-32,32v341.3c0,17.7,14.3,32,32,32h256c4,0,8-0.8,11.7-2.3
	c5.4-2.2,11.7,0.4,13.9,5.8c2.2,5.4-0.4,11.7-5.8,13.9C354.9,478.7,348.1,480,341.3,480z"/>
<path class="st0" d="M379.6,170.7h-70.3c-29.4,0-53.3-23.9-53.3-53.3V46c0-5.9,4.8-10.7,10.7-10.7c5.9,0,10.7,4.8,10.7,10.7v71.4
	c0,17.7,14.3,32,32,32h70.3c5.9,0,10.7,4.8,10.7,10.7C390.3,165.9,385.5,170.7,379.6,170.7z"/>
<path class="st0" d="M362.7,478.4c-4.2,0-8.3-1.2-11.8-3.6L316.6,452c-44.6-29.6-71.3-79.6-71.3-133.1v-18.3
	c0-9.9,6.8-18.4,16.4-20.7c31.7-8.8,61.8-22.4,89.3-40.3c7-4.5,16.1-4.5,23.1,0c27.5,18,57.7,31.6,89.3,40.3
	c9.6,2.3,16.4,10.9,16.4,20.7v18.3c0.1,53.5-26.7,103.5-71.3,133.1l-34.3,22.8C371,477.2,366.9,478.5,362.7,478.4z M362.7,257.5
	c-29.5,19.2-61.8,33.8-95.7,43.1l-0.3,18.3c-0.1,46.4,23.1,89.7,61.7,115.4l34.3,22.8l34.3-22.8c38.6-25.7,61.8-69,61.7-115.3v-18.3
	C424.6,291.3,392.2,276.8,362.7,257.5L362.7,257.5L362.7,257.5z"/>
<path class="st0" d="M352,384c-2.8,0-5.5-1.1-7.5-3.1l-21.3-21.3c-4.1-4.2-4-11,0.3-15.1c4.1-4,10.7-4,14.8,0l13.8,13.8l35.1-35.1
	c4.2-4.1,11-4,15.1,0.3c4,4.1,4,10.7,0,14.8l-42.7,42.7C357.5,382.9,354.8,384,352,384z"/>
<path class="st0" d="M192,138.7h-85.3c-5.9,0-10.7-4.8-10.7-10.7c0-5.9,4.8-10.7,10.7-10.7H192c5.9,0,10.7,4.8,10.7,10.7
	C202.7,133.9,197.9,138.7,192,138.7z"/>
<path class="st0" d="M256,202.7H106.7c-5.9,0-10.7-4.8-10.7-10.7c0-5.9,4.8-10.7,10.7-10.7H256c5.9,0,10.7,4.8,10.7,10.7
	C266.7,197.9,261.9,202.7,256,202.7z"/>
<path class="st0" d="M277.3,266.7H106.7c-5.9,0-10.7-4.8-10.7-10.7c0-5.9,4.8-10.7,10.7-10.7h170.7c5.9,0,10.7,4.8,10.7,10.7
	C288,261.9,283.2,266.7,277.3,266.7z"/>
<path class="st0" d="M213.3,330.7H106.7c-5.9,0-10.7-4.8-10.7-10.7c0-5.9,4.8-10.7,10.7-10.7h106.7c5.9,0,10.7,4.8,10.7,10.7
	C224,325.9,219.2,330.7,213.3,330.7z"/>
<path class="st0" d="M213.3,394.7H106.7c-5.9,0-10.7-4.8-10.7-10.7c0-5.9,4.8-10.7,10.7-10.7h106.7c5.9,0,10.7,4.8,10.7,10.7
	C224,389.9,219.2,394.7,213.3,394.7z"/>
</svg>
