<?xml version="1.0" encoding="utf-8"?>
<!-- Generator: Adobe Illustrator 27.8.1, SVG Export Plug-In . SVG Version: 6.00 Build 0)  -->
<svg version="1.1" id="Layer_1" xmlns="http://www.w3.org/2000/svg" xmlns:xlink="http://www.w3.org/1999/xlink" x="0px" y="0px"
	 viewBox="0 0 512 512" style="enable-background:new 0 0 512 512;" xml:space="preserve">
<style type="text/css">
	.st0{fill:#FFFFFF;}
</style>
<path class="st0" d="M195,76.9c-32.8,0-59.5,26.7-59.5,59.5s26.7,59.5,59.5,59.5s59.5-26.7,59.5-59.5S227.8,76.9,195,76.9z
	 M195,179.9c-24,0-43.5-19.5-43.5-43.5S171,92.9,195,92.9s43.5,19.5,43.5,43.5S219,179.9,195,179.9z M195,36.7
	c-87.3,0-158.3,71-158.3,158.3s71,158.3,158.3,158.3s158.3-71,158.3-158.3S282.3,36.7,195,36.7L195,36.7z M113.7,311.7v-71
	c0-14.3,11.7-26,26-26h11.4c13.3,7.5,28.4,11.4,43.8,11.4s30.5-3.9,43.8-11.4h11.4c14.3,0,26,11.7,26,26v71
	c-23.1,16.1-51.1,25.6-81.3,25.6S136.8,327.8,113.7,311.7z M292.2,298.7v-58c0-23.2-18.8-42-42-42h-13.6c-1.4,0-2.8,0.4-4.1,1.1
	c-11.3,6.7-24.3,10.3-37.6,10.3s-26.3-3.6-37.6-10.3c-1.2-0.7-2.6-1.1-4.1-1.1h-13.6c-23.2,0-42,18.8-42,42v58
	c-27.7-26-45-62.9-45-103.7c0-78.5,63.8-142.3,142.3-142.3S337.3,116.5,337.3,195C337.3,235.9,319.9,272.8,292.2,298.7z M404,343.5
	c-3.1-3.1-8.2-3.1-11.3,0l-7.1,7.1l-36.4-36.4c25.5-33,40.8-74.3,40.8-119.2C390,87.5,302.5,0,195,0S0,87.5,0,195s87.5,195,195,195
	c44.8,0,86.2-15.2,119.2-40.8l36.4,36.4l-7.1,7.1c-1.5,1.5-2.3,3.5-2.3,5.7s0.8,4.2,2.3,5.7l105.7,105.7c1.6,1.6,3.6,2.3,5.7,2.3
	c2,0,4.1-0.8,5.7-2.3l49.2-49.2c1.5-1.5,2.3-3.5,2.3-5.7s-0.8-4.2-2.3-5.7L404,343.5z M16,195C16,96.3,96.3,16,195,16
	s179,80.3,179,179s-80.3,179-179,179S16,293.7,16,195L16,195z M326.4,338.9c4.3-4,8.5-8.1,12.4-12.4l35.4,35.4l-12.4,12.4
	L326.4,338.9z M454.8,492.7l-94.3-94.3l37.9-37.9l94.3,94.3L454.8,492.7z"/>
</svg>
