<svg width="19" height="22" viewBox="0 0 19 22" fill="none" xmlns="http://www.w3.org/2000/svg">
<path d="M8.85 2.836C8.785 3.046 8.75 3.269 8.75 3.5C8.75 3.914 9.086 4.25 9.5 4.25H14C14.1989 4.25 14.3897 4.17098 14.5303 4.03033C14.671 3.88968 14.75 3.69891 14.75 3.5C14.7501 3.27491 14.7164 3.05109 14.65 2.836M8.85 2.836C8.99203 2.3767 9.27738 1.97493 9.66426 1.68954C10.0511 1.40414 10.5192 1.25011 11 1.25H12.5C13.512 1.25 14.367 1.918 14.65 2.836M8.85 2.836C8.474 2.859 8.1 2.886 7.726 2.916C6.595 3.01 5.75 3.973 5.75 5.108V7.25M14.65 2.836C15.026 2.859 15.4 2.886 15.774 2.916C16.905 3.01 17.75 3.973 17.75 5.108V15.5C17.75 16.0967 17.5129 16.669 17.091 17.091C16.669 17.5129 16.0967 17.75 15.5 17.75H13.25M5.75 7.25H2.375C1.754 7.25 1.25 7.754 1.25 8.375V19.625C1.25 20.246 1.754 20.75 2.375 20.75H12.125C12.746 20.75 13.25 20.246 13.25 19.625V17.75M5.75 7.25H12.125C12.746 7.25 13.25 7.754 13.25 8.375V17.75M5 14.75L6.5 16.25L9.5 12.5" stroke="#F9F9FA" stroke-linecap="round" stroke-linejoin="round"/>
</svg>
