<?xml version="1.0" encoding="utf-8"?>
<!-- Generator: Adobe Illustrator 27.6.1, SVG Export Plug-In . SVG Version: 6.00 Build 0)  -->
<svg version="1.1" id="Layer_1" xmlns="http://www.w3.org/2000/svg" xmlns:xlink="http://www.w3.org/1999/xlink" x="0px" y="0px"
	 viewBox="0 0 19 22" style="enable-background:new 0 0 19 22;" xml:space="preserve">
<style type="text/css">
	.st0{fill:none;stroke:#5D6A72;stroke-linecap:round;stroke-linejoin:round;}
</style>
<path class="st0" d="M8.9,2.8C8.8,3,8.8,3.3,8.8,3.5c0,0.4,0.3,0.8,0.8,0.8H14c0.2,0,0.4-0.1,0.5-0.2c0.1-0.1,0.2-0.3,0.2-0.5
	c0-0.2,0-0.4-0.1-0.7 M8.9,2.8C9,2.4,9.3,2,9.7,1.7c0.4-0.3,0.9-0.4,1.3-0.4h1.5c1,0,1.9,0.7,2.1,1.6 M8.9,2.8c-0.4,0-0.8,0-1.1,0.1
	C6.6,3,5.8,4,5.8,5.1v2.1 M14.6,2.8c0.4,0,0.8,0,1.1,0.1c1.1,0.1,2,1.1,2,2.2v10.4c0,0.6-0.2,1.2-0.7,1.6c-0.4,0.4-1,0.7-1.6,0.7
	h-2.2 M5.8,7.2H2.4c-0.6,0-1.1,0.5-1.1,1.1v11.2c0,0.6,0.5,1.1,1.1,1.1h9.8c0.6,0,1.1-0.5,1.1-1.1v-1.9 M5.8,7.2h6.4
	c0.6,0,1.1,0.5,1.1,1.1v9.4 M5,14.8l1.5,1.5l3-3.8"/>
</svg>
