<?xml version="1.0" encoding="utf-8"?>
<!-- Generator: Adobe Illustrator 27.6.1, SVG Export Plug-In . SVG Version: 6.00 Build 0)  -->
<svg version="1.1" id="Layer_1" xmlns="http://www.w3.org/2000/svg" xmlns:xlink="http://www.w3.org/1999/xlink" x="0px" y="0px"
	 viewBox="0 0 19 20" style="enable-background:new 0 0 19 20;" xml:space="preserve">
<style type="text/css">
	.st0{fill:none;stroke:#5D6A72;stroke-linecap:round;stroke-linejoin:round;}
</style>
<path class="st0" d="M17.8,12.1v4.2c0,1.1-0.8,2-1.9,2.2c-2.1,0.3-4.2,0.4-6.4,0.4c-2.2,0-4.3-0.1-6.4-0.4c-1.1-0.1-1.9-1.1-1.9-2.2
	v-4.2 M17.8,12.1c0.2-0.2,0.4-0.5,0.6-0.7c0.1-0.3,0.2-0.6,0.2-0.9V6.7c0-1.1-0.8-2-1.8-2.2c-1.1-0.2-2.3-0.3-3.4-0.4 M17.8,12.1
	c-0.2,0.2-0.4,0.3-0.7,0.4c-2.4,0.8-5,1.2-7.6,1.2c-2.6,0-5.2-0.4-7.6-1.2c-0.2-0.1-0.5-0.2-0.7-0.4 M1.3,12.1
	c-0.2-0.2-0.4-0.5-0.6-0.7s-0.2-0.6-0.2-0.9V6.7c0-1.1,0.8-2,1.8-2.2c1.1-0.2,2.3-0.3,3.4-0.4 M13.3,4.1V3.2c0-0.6-0.2-1.2-0.7-1.6
	C12.2,1.2,11.6,1,11,1H8C7.4,1,6.8,1.2,6.4,1.7C6,2.1,5.8,2.7,5.8,3.2v0.9 M13.3,4.1c-2.5-0.2-5-0.2-7.5,0 M9.5,10.8L9.5,10.8
	L9.5,10.8L9.5,10.8L9.5,10.8z"/>
</svg>
