<svg width="17" height="22" viewBox="0 0 17 22" fill="none" xmlns="http://www.w3.org/2000/svg">
<path d="M5.5 13.25L11.5 7.25M16 3.757V20.75L12.25 19.25L8.5 20.75L4.75 19.25L1 20.75V3.757C1 2.649 1.806 1.7 2.907 1.572C6.62319 1.14063 10.3768 1.14063 14.093 1.572C15.193 1.7 16 2.649 16 3.757ZM6.25 8H6.258V8.008H6.25V8ZM6.625 8C6.625 8.09945 6.58549 8.19484 6.51517 8.26516C6.44484 8.33549 6.34946 8.375 6.25 8.375C6.15054 8.375 6.05516 8.33549 5.98483 8.26516C5.91451 8.19484 5.875 8.09945 5.875 8C5.875 7.90054 5.91451 7.80516 5.98483 7.73483C6.05516 7.66451 6.15054 7.625 6.25 7.625C6.34946 7.625 6.44484 7.66451 6.51517 7.73483C6.58549 7.80516 6.625 7.90054 6.625 8ZM10.75 12.5H10.758V12.508H10.75V12.5ZM11.125 12.5C11.125 12.5995 11.0855 12.6948 11.0152 12.7652C10.9448 12.8355 10.8495 12.875 10.75 12.875C10.6505 12.875 10.5552 12.8355 10.4848 12.7652C10.4145 12.6948 10.375 12.5995 10.375 12.5C10.375 12.4005 10.4145 12.3052 10.4848 12.2348C10.5552 12.1645 10.6505 12.125 10.75 12.125C10.8495 12.125 10.9448 12.1645 11.0152 12.2348C11.0855 12.3052 11.125 12.4005 11.125 12.5Z" stroke="#F9F9FA" stroke-linecap="round" stroke-linejoin="round"/>
</svg>
