<svg width="21" height="18" viewBox="0 0 21 18" fill="none" xmlns="http://www.w3.org/2000/svg">
<path d="M0.75 14.75C6.08561 14.7457 11.398 15.4522 16.547 16.851C17.274 17.049 18 16.509 18 15.755V14.75M2.25 0.5V1.25C2.25 1.44891 2.17098 1.63968 2.03033 1.78033C1.88968 1.92098 1.69891 2 1.5 2H0.75M0.75 2V1.625C0.75 1.004 1.254 0.5 1.875 0.5H18.75M0.75 2V11M18.75 0.5V1.25C18.75 1.664 19.086 2 19.5 2H20.25M18.75 0.5H19.125C19.746 0.5 20.25 1.004 20.25 1.625V11.375C20.25 11.996 19.746 12.5 19.125 12.5H18.75M0.75 11V11.375C0.75 11.6734 0.868527 11.9595 1.0795 12.1705C1.29048 12.3815 1.57663 12.5 1.875 12.5H2.25M0.75 11H1.5C1.69891 11 1.88968 11.079 2.03033 11.2197C2.17098 11.3603 2.25 11.5511 2.25 11.75V12.5M18.75 12.5V11.75C18.75 11.5511 18.829 11.3603 18.9697 11.2197C19.1103 11.079 19.3011 11 19.5 11H20.25M18.75 12.5H2.25M13.5 6.5C13.5 7.29565 13.1839 8.05871 12.6213 8.62132C12.0587 9.18393 11.2956 9.5 10.5 9.5C9.70435 9.5 8.94129 9.18393 8.37868 8.62132C7.81607 8.05871 7.5 7.29565 7.5 6.5C7.5 5.70435 7.81607 4.94129 8.37868 4.37868C8.94129 3.81607 9.70435 3.5 10.5 3.5C11.2956 3.5 12.0587 3.81607 12.6213 4.37868C13.1839 4.94129 13.5 5.70435 13.5 6.5ZM16.5 6.5H16.508V6.508H16.5V6.5ZM4.5 6.5H4.508V6.508H4.5V6.5Z" stroke="#F9F9FA" stroke-linecap="round" stroke-linejoin="round"/>
</svg>
