<?xml version="1.0" encoding="utf-8"?>
<!-- Generator: Adobe Illustrator 27.6.1, SVG Export Plug-In . SVG Version: 6.00 Build 0)  -->
<svg version="1.1" id="Layer_1" xmlns="http://www.w3.org/2000/svg" xmlns:xlink="http://www.w3.org/1999/xlink" x="0px" y="0px"
	 viewBox="0 0 17 22" style="enable-background:new 0 0 17 22;" xml:space="preserve">
<style type="text/css">
	.st0{fill:none;stroke:#5D6A72;stroke-linecap:round;stroke-linejoin:round;}
</style>
<path class="st0" d="M16,13.2v-2.6c0-0.9-0.4-1.8-1-2.4c-0.6-0.6-1.5-1-2.4-1h-1.5c-0.3,0-0.6-0.1-0.8-0.3C10.1,6.7,10,6.4,10,6.1
	V4.6c0-0.9-0.4-1.8-1-2.4c-0.6-0.6-1.5-1-2.4-1H4.8 M4.8,14h7.5 M4.8,17h3.8 M7,1.2H2.1C1.5,1.2,1,1.8,1,2.4v17.2
	c0,0.6,0.5,1.1,1.1,1.1h12.8c0.6,0,1.1-0.5,1.1-1.1v-9.4c0-2.4-0.9-4.7-2.6-6.4C11.7,2.2,9.4,1.2,7,1.2z"/>
</svg>
