<svg width="18" height="22" viewBox="0 0 18 22" fill="none" xmlns="http://www.w3.org/2000/svg">
<path d="M7.125 1.25H2.625C2.004 1.25 1.5 1.754 1.5 2.375V19.625C1.5 20.246 2.004 20.75 2.625 20.75H15.375C15.996 20.75 16.5 20.246 16.5 19.625V10.625M7.125 1.25H7.5C9.88695 1.25 12.1761 2.19821 13.864 3.88604C15.5518 5.57387 16.5 7.86305 16.5 10.25V10.625M7.125 1.25C8.02011 1.25 8.87855 1.60558 9.51149 2.23851C10.1444 2.87145 10.5 3.72989 10.5 4.625V6.125C10.5 6.746 11.004 7.25 11.625 7.25H13.125C14.0201 7.25 14.8786 7.60558 15.5115 8.23851C16.1444 8.87145 16.5 9.72989 16.5 10.625M6 14L8.25 16.25L12 11" stroke="white" stroke-width="1.5" stroke-linecap="round" stroke-linejoin="round"/>
</svg>
